<?xml version="1.0" encoding="UTF-8" standalone="no"?>
<svg width="56px" height="56px" viewBox="0 0 56 56" version="1.1" xmlns="http://www.w3.org/2000/svg" xmlns:xlink="http://www.w3.org/1999/xlink" xmlns:sketch="http://www.bohemiancoding.com/sketch/ns">
    <!-- Generator: Sketch 3.4.4 (17249) - http://www.bohemiancoding.com/sketch -->
    <title>logo-vox</title>
    <desc>Created with Sketch.</desc>
    <defs></defs>
    <g id="Page-1" stroke="none" stroke-width="1" fill="none" fill-rule="evenodd" sketch:type="MSPage">
        <g id="logo-vox" sketch:type="MSArtboardGroup" fill="#333333">
            <path d="M52.2648829,28.3408863 C54.1043478,28.3408863 55.3,26.8233278 55.3,25.0758361 C55.3,23.6042642 54.2423077,22.5005853 52.7247492,22.5005853 C50.0115385,22.5005853 48.723913,24.6619565 46.4705686,28.616806 C46.0107023,26.1335284 44.8610368,22.9144649 42.0098662,22.9144649 C38.7908027,22.9144649 35.0658863,27.5131271 31.6628763,30.3642977 C30.0993311,31.6979097 28.3978261,32.5256689 27.0182274,32.5256689 C25.5926421,32.5256689 24.7648829,31.1000836 24.7648829,28.5708194 C25.7765886,24.4320234 26.2824415,23.3743311 27.8459866,23.3743311 C28.9036789,23.3743311 29.3635452,23.9721572 29.3635452,25.213796 C29.3635452,26.547408 29.0876254,28.7547659 28.4897993,31.5599498 C30.0073579,31.1000836 32.306689,29.1686455 34.2381271,27.0992475 C33.2264214,24.6619565 31.0190635,23.0064381 27.8919732,23.0064381 C22.0516722,23.0064381 16.9011706,28.248913 16.9011706,34.1352007 C16.9011706,38.1820234 19.7983278,41.2631271 24.3050167,41.2631271 C31.7548495,41.2631271 34.8819398,34.825 34.8819398,30.318311 C34.8819398,29.6744983 34.8359532,29.2146321 34.7899666,28.616806 C35.9396321,27.3751672 37.411204,26.1795151 38.6068562,26.1795151 C39.9864548,26.1795151 41.0901338,29.6285117 42.1478261,34.825 C41.182107,35.8826923 40.216388,37.9061037 39.7565217,38.2739967 C39.5725753,36.4345318 38.3309365,35.2848662 36.7214047,35.2848662 C34.8819398,35.2848662 33.640301,37.0323579 33.640301,38.5039298 C33.640301,40.1594482 34.7899666,41.2631271 36.3075251,41.2631271 C39.480602,41.2631271 40.3543478,38.2739967 42.3317726,35.6067726 C42.9295987,38.4579431 44.3551839,41.2631271 46.7924749,41.2631271 C49.6896321,41.2631271 52.3568562,38.7798495 53.7364548,37.0323579 L53.4605351,36.6184783 C52.5867893,37.4922241 51.7130435,38.0440635 50.7013378,38.0440635 C48.9078595,38.0440635 47.6202341,34.1811873 46.6545151,29.4905518 C47.2523411,28.7087793 48.1720736,26.6853679 48.8158863,25.9495819 C49.2297659,26.7773411 50.1494983,28.3408863 52.2648829,28.3408863 M24.39699,40.8032609 C23.5232441,40.8032609 22.9714047,40.5273411 22.9714047,39.0557692 C22.9714047,37.2163043 23.661204,33.5833612 24.39699,30.2723244 C24.4889632,31.7898829 25.5466555,33.3074415 27.1102007,33.3074415 C27.4780936,33.3074415 27.8,33.2614548 28.1219064,33.2154682 C26.6503344,39.5156355 26.098495,40.8032609 24.39699,40.8032609 M25.5466555,15.0047659 L26.3284281,15.0047659 L26.4204013,14.6368729 L16.5792642,14.6368729 L16.487291,15.0047659 L17.9128763,15.0047659 C19.1545151,15.0047659 20.1662207,15.8785117 20.1662207,17.5800167 C20.1662207,18.5457358 19.7523411,19.7873746 19.0625418,21.3049331 L12.6704013,35.4228261 L11.1068562,17.0741639 C10.9688963,15.6485786 11.7046823,15.0047659 13.314214,15.0047659 L14.2339465,15.0047659 L14.3259197,14.6368729 L0.437959866,14.6368729 L0.3,15.0047659 L1.17374582,15.0047659 C2.27742475,15.0047659 2.69130435,15.6945652 2.78327759,16.9821906 L5.26655518,40.7112876 L11.1068562,40.7112876 L20.9020067,19.9713211 C22.4195652,16.8902174 23.9831104,15.0047659 25.5466555,15.0047659" id="Page-1" sketch:type="MSShapeGroup"></path>
        </g>
    </g>
</svg>