<?xml version="1.0" encoding="UTF-8" standalone="no"?>
<svg width="56px" height="56px" viewBox="0 0 56 56" version="1.1" xmlns="http://www.w3.org/2000/svg" xmlns:xlink="http://www.w3.org/1999/xlink" xmlns:sketch="http://www.bohemiancoding.com/sketch/ns">
    <!-- Generator: Sketch 3.4.4 (17249) - http://www.bohemiancoding.com/sketch -->
    <title>logo-huffpost</title>
    <desc>Created with Sketch.</desc>
    <defs>
        <path id="path-1" d="M0,0 L50,0 L50,46 L0,46 L0,0 Z"></path>
    </defs>
    <g id="Page-1" stroke="none" stroke-width="1" fill="none" fill-rule="evenodd" sketch:type="MSPage">
        <g id="logo-huffpost" sketch:type="MSArtboardGroup">
            <g id="Page-1" sketch:type="MSLayerGroup" transform="translate(2.000000, 6.000000)">
                <mask id="mask-2" sketch:name="Clip 2" fill="white">
                    <use xlink:href="#path-1"></use>
                </mask>
                <g id="Clip-2"></g>
                <path d="M16.188361,23.481981 C12.8839321,23.481981 12.7476327,23.6187369 12.7476327,25.6934232 L12.7476327,35.429773 C12.7476327,42.6828366 13.086719,43.6484664 16.9429942,44.065405 L18.9409436,44.268871 C19.3498418,44.547386 19.2168668,45.7881952 18.8013199,46 C15.0863307,45.8599086 12.7476327,45.7881952 10.0582133,45.7881952 C7.09951937,45.7881952 4.75915927,45.9299543 2.07638853,46 C1.66084164,45.7881952 1.52454225,44.6874773 1.93676477,44.268871 L3.10860701,44.065405 C6.96654437,43.3716192 7.09951937,42.6828366 7.09951937,35.429773 L7.09951937,10.5652237 C7.09951937,3.31549561 6.61914716,2.13972881 3.03879513,1.86288159 L1.25194349,1.72612573 C0.834734412,1.44927851 0.974358168,0.203466029 1.38824287,0 C4.76248365,0.070045682 7.10284375,0.203466029 10.0615376,0.203466029 C12.7509571,0.203466029 15.089655,0.133420347 18.0483489,0 C18.465558,0.203466029 18.6018574,1.45261402 18.1879727,1.72612573 L16.8765067,1.86288159 C12.8872565,2.27982017 12.7509571,3.31549561 12.7509571,10.5652237 L12.7509571,18.5104053 C12.7509571,20.6501341 12.8872565,20.7201798 16.1916854,20.7201798 L35.8819594,20.7201798 C39.1830639,20.7201798 39.3226877,20.6501341 39.3226877,18.5104053 L39.3226877,10.5652237 C39.3226877,3.31549561 39.1830639,2.27982017 35.125664,1.86288159 L33.814198,1.72612573 C33.4052999,1.44927851 33.5382749,0.203466029 33.955484,0 C37.1202891,0.136755855 39.4623114,0.203466029 42.2813815,0.203466029 C44.9674766,0.203466029 47.3111611,0.133420347 50.4061544,0 C50.8217013,0.203466029 50.9580007,1.45261402 50.5457781,1.72612573 L49.0980128,1.86288159 C45.1071004,2.27982017 44.9674766,3.31549561 44.9674766,10.5652237 L44.9674766,35.429773 C44.9674766,42.6828366 45.1071004,43.5817562 49.0980128,44.065405 L50.748565,44.268871 C51.1657741,44.547386 51.0244882,45.7881952 50.6122656,46 C47.3078367,45.8599086 44.9641523,45.7881952 42.2780572,45.7881952 C39.458987,45.7881952 36.9806654,45.8599086 33.9504974,46 C33.5349505,45.7881952 33.3986511,44.6874773 33.8108737,44.268871 L35.1223397,44.065405 C39.3193633,43.3716192 39.3193633,42.6828366 39.3193633,35.429773 L39.3193633,25.6934232 C39.3193633,23.6187369 39.1797395,23.481981 35.878635,23.481981 L16.188361,23.481981 Z" id="Fill-1" fill="#357160" sketch:type="MSShapeGroup" mask="url(#mask-2)"></path>
            </g>
        </g>
    </g>
</svg>