<?xml version="1.0" encoding="UTF-8" standalone="no"?>
<svg width="56px" height="56px" viewBox="0 0 56 56" version="1.1" xmlns="http://www.w3.org/2000/svg" xmlns:xlink="http://www.w3.org/1999/xlink" xmlns:sketch="http://www.bohemiancoding.com/sketch/ns">
    <!-- Generator: Sketch 3.4.4 (17249) - http://www.bohemiancoding.com/sketch -->
    <title>logo-longreads</title>
    <desc>Created with Sketch.</desc>
    <defs></defs>
    <g id="Page-1" stroke="none" stroke-width="1" fill="none" fill-rule="evenodd" sketch:type="MSPage">
        <g id="logo-longreads" sketch:type="MSArtboardGroup" fill="#CC0000">
            <g sketch:type="MSLayerGroup" id="Layer_1">
                <g sketch:type="MSShapeGroup">
                    <path d="M28,56 C12.6,56 0,43.4 0,28 C0,12.6 12.6,0 28,0 C43.4,0 56,12.6 56,28 C56,43.4 43.4,56 28,56 L28,56 Z M28,2.625 C14,2.625 2.625,14 2.625,28 C2.625,42 14,53.375 28,53.375 C42,53.375 53.375,42 53.375,28 C53.375,14 42,2.625 28,2.625 L28,2.625 Z" id="Shape"></path>
                    <path d="M28,5.25 C15.4,5.25 5.25,15.4 5.25,28 C5.25,40.6 15.4,50.75 28,50.75 C40.6,50.75 50.75,40.6 50.75,28 C50.75,15.4 40.6,5.25 28,5.25 L28,5.25 Z M40.25,40.25 L18.725,40.25 L18.725,39.2 C22.225,39.2 22.75,38.5 22.75,34.475 L22.75,21.525 C22.75,17.5 22.225,16.8 18.725,16.8 L18.725,15.75 L30.45,15.75 L30.45,16.625 C26.95,16.625 26.25,17.325 26.25,21.35 L26.25,33.775 C26.25,37.8 26.775,38.5 30.275,38.5 L34.475,38.5 C38.325,38.5 38.85,37.625 39.375,35.35 L39.55,34.475 L40.425,34.475 L40.25,40.25 L40.25,40.25 Z" id="Shape"></path>
                </g>
            </g>
        </g>
    </g>
</svg>