<?xml version="1.0" encoding="UTF-8" standalone="no"?>
<svg width="56px" height="56px" viewBox="0 0 56 56" version="1.1" xmlns="http://www.w3.org/2000/svg" xmlns:xlink="http://www.w3.org/1999/xlink" xmlns:sketch="http://www.bohemiancoding.com/sketch/ns">
    <!-- Generator: Sketch 3.4.4 (17249) - http://www.bohemiancoding.com/sketch -->
    <title>logo-nytimes</title>
    <desc>Created with Sketch.</desc>
    <defs>
        <path id="path-1" d="M0,1 L40,1 L40,56 L0,56"></path>
    </defs>
    <g id="Page-1" stroke="none" stroke-width="1" fill="none" fill-rule="evenodd" sketch:type="MSPage">
        <g id="logo-nytimes" sketch:type="MSArtboardGroup">
            <g id="Page-1" sketch:type="MSLayerGroup" transform="translate(8.000000, 0.000000)">
                <mask id="mask-2" sketch:name="Clip 2" fill="white">
                    <use xlink:href="#path-1"></use>
                </mask>
                <g id="Clip-2"></g>
                <path d="M32.558847,1.06349756 C34.0331159,1.19090116 36.3464729,1.90223797 38.0896109,3.40011509 C39.9410183,5.1634164 40.3632691,7.83977689 39.7145547,10.2719471 C39.1380199,12.4378085 38.49111,13.5640917 36.236399,15.0619689 C33.9573273,16.5695782 31.20187,16.4421746 31.20187,16.4421746 L31.20187,25.8311126 L35.8592604,29.526702 L31.2009678,33.2116743 L31.20187,46.0006961 C31.20187,46.0006961 35.8691851,43.3774205 38.7626859,37.5044681 C38.7626859,37.5044681 38.8817823,37.1841896 39.1542604,36.5799072 C39.4114003,38.1521031 39.2643343,41.338078 37.4490167,45.4273799 C36.0812128,48.5063004 33.5946246,51.4702037 30.473758,53.1583015 C24.9447986,56.1646728 20.7989813,56.4522156 16.3536186,55.5480039 C11.1485653,54.4978089 6.42170199,51.6285735 3.19527268,46.6262124 C0.927930167,43.1111115 -0.087095831,39.0129622 0.00583543811,34.6033818 C0.188088995,25.9478993 6.75463052,18.4815171 14.3343935,15.6989869 C15.2573905,15.3592439 15.6255066,15.1362876 16.9337623,15.0186162 C16.3301602,15.4229457 15.6327246,15.9431771 14.777396,16.4952594 C12.3359201,18.0674553 10.2445155,21.2003454 9.35219483,23.6112817 L24.0642072,17.1747453 L24.0642072,37.3452136 L12.1996811,43.1756981 C13.5521468,45.0124334 17.6591676,47.7958483 21.1725109,48.1886761 C27.1498862,48.8363111 30.6569138,46.277622 30.6569138,46.277622 L30.6560116,33.2116743 L26.0238841,29.526702 L30.6587183,25.8417296 L30.6587183,16.4421746 C28.1324314,16.1555165 25.0629928,15.33801 23.2684268,14.9027143 C20.6302615,14.2648116 11.8324672,11.8432583 10.4493251,11.6415359 C9.06798755,11.4398135 7.36274387,11.5035153 6.33147746,12.4068423 C5.2993088,13.3199015 4.6605191,14.9230635 5.09991258,16.3678558 C5.34803004,17.1853623 5.92185808,17.6640106 6.35674033,18.1302724 C6.35674033,18.1302724 5.8487762,18.0886893 4.92758372,17.5463392 C3.26655007,16.5695782 2.0034066,14.6576394 1.85092714,12.3006726 C1.65604215,9.21025041 2.95347094,6.4268355 5.55283974,4.55824927 C7.8111598,3.13469091 10.3654163,2.22163173 13.335608,2.63569345 C17.66819,3.24086059 23.4939881,5.64117993 28.682801,6.86213116 C30.6930036,7.34077943 32.2493768,7.50003394 33.662293,6.69225968 C34.3209321,6.22511313 35.4785129,5.02539583 34.5320575,3.431966 C33.4277092,1.56249502 31.3101395,1.60496288 29.5164757,1.2758369 C31.0602175,0.957327883 31.3985595,0.957327883 32.558847,1.06349756 M15.0652123,41.1673218 L15.0652123,21.6887259 L9.09144592,24.3013846 C9.08964143,24.3013846 7.56845581,27.646614 7.83461818,32.5003375 C8.04484134,36.2923643 10.2066212,40.8284636 11.8676548,42.7297855 L15.0652123,41.1673218" id="Fill-1" fill="#000000" sketch:type="MSShapeGroup" mask="url(#mask-2)"></path>
            </g>
        </g>
    </g>
</svg>